<?xml version="1.0" encoding="UTF-8"?>
<svg id="Layer_1" data-name="Layer 1" xmlns="http://www.w3.org/2000/svg" viewBox="0 0 500 500">
  <defs>
    <style>
      .cls-1 {
        fill: #f27228;
        fill-rule: evenodd;
        stroke-width: 0px;
      }
    </style>
  </defs>
  <path class="cls-1" d="M229.28,261.44l.18-.23h0l-.18.23ZM415.25,53.96l-10.13-7.91s-60.74,68.97-99.98,119.11c-39.25,50.14-69.77,76.68-131.62,76.68h-59.06c-.45,3.66-.67,11.73.14,17.48h58.92c39.18,0,38.74,24.62,12.97,57.6l-21.27,27.29c-46.4-15.83-68.18-57.71-68.18-94.21,0-57.74,47.38-101.98,102.08-101.98h74.08c4.32,0,4.04.55,7.44-3.8,3.4-4.35,33.31-42.62,34.53-44.18,1.22-1.56-.02-3.01-1.22-3.01h-114.83c-85.81,0-153.07,70.18-153.07,152.96,0,56.17,30.68,109.53,85.56,137.19l-45.92,58.75,10.11,8.01s56.33-66.98,100.04-119.17c43.71-52.19,71.76-75.24,130.46-75.46h59.54c.71-5.59.64-13.62.1-17.48h-59.64c-42.24,0-31.43-25.2-11.67-51.88,19.76-26.68,24.36-32.87,24.36-32.87,48.11,20.5,63.99,57.87,63.99,92.91,0,63.95-53.46,101.98-101.87,101.98s-73.82-.04-75.69-.04-2.69.69-3.24,1.39c-.55.7-35.95,45.96-36.69,46.87s-.12,2.77,1.42,2.77h114.2c84.09,0,152.86-67.66,152.86-152.96,0-59.07-32.92-109.99-83.03-136.12l44.33-59.93Z"/>
</svg>